<svg id="图层_1" data-name="图层 1" xmlns="http://www.w3.org/2000/svg" viewBox="0 0 245.13 195.87"><defs><style>.cls-1{fill:#24539c;}</style></defs><title>apinto</title><path class="cls-1" d="M161,0a84.29,84.29,0,0,0-80.6,60H54.3a10.77,10.77,0,0,0,0,21.53H76.9c0,.87,0,1.74,0,2.61V128H54.3a10.76,10.76,0,1,0,0,21.52H76.86v28.35a18,18,0,0,0,18,18H227.13a18,18,0,0,0,18-18V84.14A84.23,84.23,0,0,0,161,0Zm-.35,91.49a10,10,0,1,1-10-10A10,10,0,0,1,160.64,91.49ZM90.89,177.87V149.52h1a10.76,10.76,0,0,0,0-21.52h-1V84.14c0-.87,0-1.74.06-2.61h1A10.76,10.76,0,0,0,95,60.47,70.45,70.45,0,0,1,137.91,18c-7.47,7.27-13.62,19.34-13.62,39.5V149.7A15.73,15.73,0,0,0,136.43,165l71.75,16.83H94.85A4,4,0,0,1,90.89,177.87Z"/><rect class="cls-1" y="94.42" width="59.12" height="21.53" rx="10.76"/></svg>